<svg xmlns="http://www.w3.org/2000/svg" viewBox="0 0 446 440" width="446" height="440"><!-- Fond de carte : Natural Earth (domaine public), world-atlas 110m --><rect width="446" height="440" fill="#D6E6F0"/><g transform="scale(5.94667,5.94595) translate(20,38)"><path d="M48.9,-38.4L48.9,-38.3L48.9,-38.3L49.2,-37.6L50.1,-37.4L50.8,-36.9L52.3,-36.7L53.8,-37L53.9,-37.2L53.7,-37.9L53.8,-38.4L55.4,-38.4L55.4,-26.8L54.7,-26.5L53.5,-26.8L52.5,-27.6L51.5,-27.9L50.9,-28.8L50.1,-30.1L49.6,-30L48.9,-30.3L48.6,-29.9L48,-30L48.2,-29.5L48.1,-29.3L48.4,-28.6L48.8,-27.7L49.3,-27.5L49.5,-27.1L50.2,-26.7L50.2,-26.3L50.1,-25.9L50.2,-25.6L50.5,-25.3L50.7,-25L50.8,-24.8L50.7,-25.5L51,-26L51.3,-26.1L51.6,-25.8L51.6,-25.2L51.4,-24.6L51.6,-24.2L51.8,-24.3L51.8,-24L52.6,-24.2L53.4,-24.2L54,-24.1L54.7,-24.8L55.4,-25.4L55.4,-17.7L55.4,-17.7L55.3,-17.6L55.3,-17.2L54.8,-16.9L54.2,-17L53.6,-16.7L53.1,-16.7L52.4,-16.4L52.2,-15.9L52.2,-15.6L51.2,-15.2L49.6,-14.7L48.7,-14L48.2,-13.9L47.9,-14L47.4,-13.6L46.7,-13.4L45.9,-13.3L45.6,-13.3L45.4,-13L45.1,-13L45,-12.7L44.5,-12.7L44.2,-12.6L43.5,-12.6L43.2,-13.2L43.3,-13.8L43.1,-14.1L42.9,-14.8L42.6,-15.2L42.8,-15.3L42.7,-15.7L42.8,-15.9L42.8,-16.3L42.6,-16.8L42.3,-17.1L42.3,-17.5L41.8,-17.8L41.2,-18.7L40.9,-19.5L40.2,-20.2L39.8,-20.3L39.1,-21.3L39,-22L39.1,-22.6L38.5,-23.7L38,-24.1L37.5,-24.3L37.2,-24.9L37.2,-25.1L36.9,-25.6L36.6,-25.8L36.3,-26.6L35.6,-27.4L35.1,-28.1L34.6,-28.1L34.8,-28.6L34.8,-29L35,-29.4L34.9,-29.5L34.6,-29.1L34.4,-28.3L34.2,-27.8L33.9,-27.6L33.6,-28L33.1,-28.4L32.4,-29.9L32.3,-29.8L32.7,-28.7L33.3,-27.7L34.1,-26.1L34.5,-25.6L34.8,-25L35.7,-23.9L35.5,-23.8L35.5,-23.1L36.7,-22.2L36.9,-22L37.2,-21L37,-20.8L37.1,-19.8L37.5,-18.6L37.9,-18.4L38.4,-18L39,-16.8L39.3,-15.9L39.8,-15.4L41.2,-14.5L41.7,-13.9L42.3,-13.3L42.6,-13L43.1,-12.7L43.3,-12.4L43.3,-12L42.7,-11.7L43.1,-11.5L43.5,-11.3L43.7,-10.9L44.1,-10.4L44.6,-10.4L45.6,-10.7L46.6,-10.8L47.5,-11.1L48,-11.2L48.4,-11.4L48.9,-11.4L49.3,-11.4L49.7,-11.6L50.3,-11.7L50.7,-12L51.1,-12L51.1,-11.7L51,-11.2L51,-10.6L50.8,-10.3L50.6,-9.2L50.1,-8.1L49.5,-6.8L48.6,-5.3L47.7,-4.2L46.6,-2.9L45.6,-2L44.1,-1.1L43.1,-0.3L42,0.9L41.8,1.4L41.6,1.7L40.9,2.1L40.6,2.5L40.3,2.6L40.1,3.3L39.8,3.7L39.6,4.3L39.2,4.7L39.2,4.7L38.7,5.9L38.8,6.5L39.4,6.8L39.5,7.1L39.2,7.7L39.3,8L39.2,8.5L39.5,9.1L40,10.1L40.3,10.3L40.5,10.8L40.4,11.8L40.6,12.6L40.6,14.2L40.8,14.7L40.5,15.4L40.1,16.1L39.5,16.7L38.5,17.1L37.4,17.6L36.3,18.7L35.9,18.8L35.2,19.6L34.8,19.8L34.7,20.5L35.2,21.3L35.4,21.8L35.4,22.1L35.6,22.1L35.5,23.1L35.4,23.5L35.6,23.7L35.5,24.1L35,24.5L34.2,24.8L33,25.4L32.6,25.7L32.7,26.1L32.9,26.2L32.8,26.7L32.6,27.5L32.5,28.3L32.2,28.8L31.5,29.3L31.3,29.4L30.9,29.9L30.6,30.4L30.1,31.1L28.9,32.2L28.2,32.8L27.5,33.2L26.4,33.6L25.9,33.7L25.8,33.9L25.2,33.8L24.7,34L23.6,33.8L23,33.9L22.6,33.9L21.5,34.3L20.7,34.4L20.1,34.8L19.6,34.8L19.2,34.5L18.9,34.4L18.4,34L18.4,34.1L18.2,33.9L18.3,33.3L17.9,32.6L18.2,32.4L18.2,31.7L17.6,30.7L17.1,29.9L17.1,29.9L16.3,28.6L15.6,27.8L15.2,27.1L15,26.1L14.7,25.4L14.4,23.9L14.4,22.7L14.3,22.1L13.9,21.7L13.4,20.9L12.8,19.7L12.6,19L11.8,18.1L11.7,17.3L11.6,16.7L11.8,15.8L12.1,14.9L12.2,14.4L12.5,13.5L12.7,13.1L13.3,12.5L13.6,12L13.7,11.3L13.7,10.7L13.4,10.4L13.1,9.8L12.9,9.2L12.9,9L13.2,8.6L12.9,7.6L12.7,6.9L12.2,6.3L12.3,6.1L12.2,5.8L11.9,5L11.1,4L10.1,3L9.4,2.1L8.8,1.1L8.8,0.8L9,0.5L9.3,-0.3L9.5,-1L9.3,-1.2L9.6,-2.3L9.8,-3.1L9.4,-3.7L8.9,-3.9L8.7,-4.4L8.5,-4.5L8.5,-4.8L7.5,-4.4L7.1,-4.5L6.7,-4.2L5.9,-4.3L5.4,-4.9L5,-5.6L4.3,-6.3L3.6,-6.3L2.7,-6.3L1.9,-6.1L1.1,-5.9L-0.5,-5.3L-1.1,-5L-2,-4.7L-2.9,-5L-3.3,-5L-4,-5.2L-4.6,-5.2L-5.8,-5L-6.5,-4.7L-7.5,-4.3L-7.7,-4.4L-8,-4.4L-9,-4.8L-9.9,-5.6L-10.8,-6.1L-11.4,-6.8L-11.7,-6.9L-12.4,-7.3L-12.9,-7.8L-13.1,-8.2L-13.2,-8.9L-13.7,-9.5L-14.1,-9.9L-14.3,-10L-14.6,-10.2L-14.7,-10.7L-14.8,-10.9L-15.1,-11L-15.7,-11.5L-16.1,-11.5L-16.3,-11.8L-16.3,-12L-16.6,-12.2L-16.7,-12.4L-16.8,-13.2L-16.7,-13.6L-17.1,-14.4L-17.6,-14.7L-17.2,-14.9L-16.7,-15.6L-16.5,-16.1L-16.6,-16.7L-16.3,-17.2L-16.1,-18.1L-16.3,-19.1L-16.4,-19.6L-16.3,-20.1L-16.5,-20.6L-17.1,-21L-17,-21.4L-17,-21.9L-16.6,-22.2L-16.3,-22.7L-16.3,-23L-16,-23.7L-15.4,-24.4L-15.1,-24.5L-14.8,-25.1L-14.8,-25.6L-14.4,-26.3L-13.8,-26.6L-13.1,-27.6L-13.1,-27.7L-12.6,-28L-11.7,-28.1L-10.9,-28.8L-10.4,-29.1L-9.6,-29.9L-9.8,-31.2L-9.4,-32L-9.3,-32.6L-8.7,-33.2L-7.7,-33.7L-6.9,-34.1L-6.2,-35.1L-5.9,-35.8L-5.2,-35.8L-4.6,-35.3L-3.6,-35.4L-2.6,-35.2L-2.2,-35.2L-1.2,-35.7L-0.1,-35.9L0.5,-36.3L1.5,-36.6L3.2,-36.8L4.8,-36.9L5.3,-36.7L6.3,-37.1L7.3,-37.1L7.7,-36.9L8.4,-36.9L9.5,-37.4L10.2,-37.2L10.2,-36.7L11,-37.1L11.1,-36.9L10.6,-36.4L10.6,-35.9L10.9,-35.7L10.8,-34.8L10.2,-34.3L10.3,-33.8L10.9,-33.8L11.1,-33.3L11.5,-33.1L12.7,-32.8L13.1,-32.9L13.9,-32.7L15.2,-32.3L15.7,-31.4L16.6,-31.2L18,-30.8L19.1,-30.3L19.6,-30.5L20.1,-31L19.8,-31.8L20.1,-32.2L20.9,-32.7L21.5,-32.8L22.9,-32.6L23.2,-32.2L23.6,-32.2L23.9,-32L24.9,-31.9L25.2,-31.6L26.5,-31.6L27.5,-31.3L28.4,-31L28.9,-30.9L29.7,-31.2L30.1,-31.5L31,-31.6L31.7,-31.4L32,-30.9L32.2,-31.3L33,-31L33.8,-31L34.3,-31.2L34.6,-31.5L34.5,-31.6L34.8,-32.1L35,-32.8L35.1,-33.1L35.1,-33.1L35.5,-33.9L36,-34.6L36,-34.6L35.9,-35.4L36.1,-35.8L35.8,-36.3L36.2,-36.7L35.6,-36.6L34.7,-36.8L34,-36.2L32.5,-36.1L31.7,-36.6L30.6,-36.7L30.4,-36.3L29.7,-36.1L28.7,-36.7L27.6,-36.7L27,-37.7L26.3,-38.2L26.4,-38.4L48.9,-38.4ZM23.7,-38.4L24,-38.2L24,-37.7L23.1,-37.9L23.4,-37.4L22.8,-37.3L23.2,-36.4L22.5,-36.4L21.7,-36.8L21.3,-37.6L21.1,-38.3L21,-38.4L23.7,-38.4ZM16.4,-38.4L16.1,-38L15.7,-37.9L15.7,-38.2L15.8,-38.4L16.4,-38.4ZM-0.3,-38.4L-0.5,-38.3L-0.7,-37.6L-1.4,-37.4L-2.1,-36.7L-3.4,-36.7L-4.4,-36.7L-5,-36.3L-5.4,-35.9L-5.9,-36L-6.2,-36.4L-6.5,-36.9L-7.5,-37.1L-7.9,-36.8L-8.4,-37L-8.9,-36.9L-8.7,-37.7L-8.8,-38.3L-9.3,-38.4L-9.3,-38.4L-0.3,-38.4ZM49.5,12.5L49.8,12.9L50.1,13.6L50.2,14.8L50.5,15.2L50.4,15.7L50.2,16L49.9,15.4L49.7,15.7L49.9,16.5L49.8,16.9L49.5,17.1L49.4,18L49,19.1L48.5,20.5L47.9,22.4L47.5,23.8L47.1,24.9L46.3,25.2L45.4,25.6L44.8,25.3L44,25L43.8,24.5L43.7,23.6L43.3,22.8L43.3,22.1L43.4,21.3L43.9,21.2L43.9,20.8L44.4,20.1L44.5,19.4L44.2,19L44,18.3L44,17.4L44.3,16.9L44.4,16.2L44.9,16.2L45.5,16L45.9,15.8L46.3,15.8L46.9,15.2L47.7,14.6L48,14.1L47.9,13.7L48.3,13.8L48.8,13.1L48.9,12.5L49.2,12ZM26.3,-35.3L26.2,-35L24.7,-34.9L24.7,-35.1L23.5,-35.3L23.7,-35.7L24.2,-35.4L25,-35.4L25.8,-35.4L25.7,-35.2ZM14.8,-38.1L15.5,-38.2L15.2,-37.4L15.3,-37.1L15.1,-36.6L14.3,-37L13.8,-37.1L12.4,-37.6L12.6,-38.1L13.7,-38ZM32.7,-35.1L32.8,-35.1L32.9,-35.4L33.7,-35.4L34.6,-35.7L33.9,-35.2L34,-35.1L34,-35L33,-34.6L32.5,-34.7L32.3,-35.1Z" fill="#EFEAE0"/><path d="M40.3,10.3L39.5,10.9L38.4,11.3L37.8,11.3L37.5,11.6L36.8,11.6L36.5,11.7L35.3,11.4L34.6,11.5L34.3,10.2L33.9,9.7L33.7,9.4L32.8,9.2L32.2,8.9L31.6,8.8L31.2,8.6L30.7,8.3L30.2,7.1L29.6,6.5L29.4,5.9L29.5,5.4L29.3,4.5L29.8,4.5L30.1,4.1L30.5,3.6L30.8,3.4L30.7,3L30.5,2.8L30.5,2.4L30.8,2.3L30.8,1.7L30.4,1.1L30.8,1L31.9,1L33.9,1L34.1,1.1L37.7,3.1L37.8,3.7L39.2,4.7M-17,-21.4L-17,-21.4L-14.8,-21.5L-14.6,-21.9L-14.2,-22.3L-13.9,-23.7L-12.5,-24.8L-12,-26L-11.7,-26.1L-11.4,-26.9L-10.5,-27L-10.2,-26.9L-9.7,-26.9L-9.4,-27.1L-8.8,-27.1L-8.8,-27.7L-8.7,-27.7L-8.7,-27.6L-8.7,-27.4L-8.7,-25.9L-12,-25.9L-11.9,-23.4L-12.9,-23.3L-13.1,-22.8L-12.9,-21.3L-16.8,-21.3L-17.1,-21M30.7,8.3L30.3,8.2L29,8.4L28.7,8.5L28.4,9.2L28.7,9.6L28.5,10.8L28.4,11.8L28.6,12L29.3,12.4L29.6,12.2L29.7,13.3L28.9,13.2L28.5,12.7L28.2,12.3L27.4,12.1L27.2,11.6L26.6,11.9L25.8,11.8L25.4,11.3L24.8,11.2L24.3,11.3L24.3,11L23.9,10.9L23.5,10.9L22.8,11L22.4,11L22.2,11.1L22.2,9.9L21.9,9.5L21.8,8.9L21.9,8.3L21.7,7.9L21.7,7.3L20.5,7.3L20.6,6.9L20.1,6.9L20,7.1L19.4,7.2L19.2,7.7L19,8L18.5,7.8L18.1,8L17.5,8.1L17.1,7.5L16.9,7.2L16.6,6.6L16.3,5.9L13.4,5.9L13,6L12.7,6L12.3,6.1M12.2,5.8L12.4,5.7L12.5,5.2L12.6,5L13,4.8L13.3,4.9L13.6,4.5L14.1,4.5L14.2,4.8L14.6,5L15.2,4.3L15.8,3.9L16,3.5L16,2.7L16.4,1.7L16.9,1.2L17.5,0.7L17.6,0.4L17.7,0.1L17.8,-0.3L17.8,-0.9L17.9,-1.7L18.1,-2.4L18.4,-2.9L18.5,-3.5L18.5,-4.2L18.9,-4.7L19.5,-5L20.3,-4.7L20.9,-4.3L21.7,-4.2L22.4,-4L22.7,-4.6L22.8,-4.7L23.3,-4.6L24.4,-5.1L24.8,-4.9L25.1,-4.9L25.3,-5.2L25.7,-5.3L26.4,-5.2L27,-5.1L27.4,-5.2L28,-4.4L28.4,-4.3L28.7,-4.5L29.2,-4.4L29.7,-4.6L30,-4.2L30.8,-3.5L30.8,-2.3L31.2,-2.2L30.9,-1.8L30.5,-1.6L30.1,-1.1L29.9,-0.6L29.8,0.2L29.6,0.6L29.6,1.3L29.3,1.6L29.3,2.2L29.1,2.3L29,2.8L29.3,3.3L29.3,4.5M41.6,1.7L41,0.9L41,-2.8L41.9,-3.9L42.1,-4.2L42.8,-4.3L43.7,-5L45,-5L47.8,-8L48.5,-8.8L48.9,-9.5L48.9,-10L48.9,-11L48.9,-11.4L48.9,-11.4M33.9,1L33.9,-0.1L34.2,-0.5L34.7,-1.2L35,-1.9L34.6,-3.1L34.5,-3.6L34,-4.3L34.6,-4.8L35.3,-5.5L35.8,-5.3L35.8,-4.8L36.2,-4.4L36.9,-4.4L38.1,-3.6L38.4,-3.6L38.7,-3.6L38.9,-3.5L39.6,-3.4L39.9,-3.8L40.8,-4.3L41.2,-3.9L41.9,-3.9M38.4,-18L37.9,-17.4L37.2,-17.3L36.9,-17L36.8,-16.3L36.3,-14.8L36.4,-14.4L36.3,-13.6L35.9,-12.6L35.3,-12.1L34.8,-11.3L34.7,-10.9L34.3,-10.6L34,-9.6L34,-8.7L34,-9.5L33.8,-9.5L33.8,-10L33.7,-10.3L33.2,-10.7L33.1,-11.4L33.2,-12.2L32.7,-12.2L32.7,-12L32.1,-12L32.3,-11.7L32.4,-11.1L31.9,-10.5L31.4,-9.8L30.8,-9.7L30,-10.3L29.6,-10.1L29.5,-9.8L29,-9.6L29,-9.4L28,-9.4L27.8,-9.6L27.1,-9.6L26.8,-9.5L26.5,-9.6L26,-10.1L25.8,-10.4L25.1,-10.3L24.8,-9.8L24.5,-8.9L24.2,-8.7L23.9,-8.6L24.6,-8.2L23.8,-8.7L23.5,-9L23.4,-9.3L23.6,-9.7L23.6,-10.1L23,-10.7L22.9,-11.1L22.9,-11.4L22.5,-11.7L22.5,-12.3L22.3,-12.6L21.9,-12.6L22,-13L22.3,-13.4L22.2,-13.8L22.5,-14.1L22.3,-14.3L22.6,-14.9L23,-15.7L23.9,-15.6L23.8,-19.6L23.8,-20L25,-20L25,-22L29,-22L32.9,-22L36.9,-22M22.9,-11.1L22.2,-11L21.7,-10.6L21,-9.5L20.1,-9L19.1,-9.1L18.8,-9L18.9,-8.6L18.4,-8.3L18,-7.9L16.7,-7.5L16.5,-7.7L16.3,-7.8L16.1,-7.5L15.3,-7.4L15.4,-7.7L15.1,-8.4L15,-8.8L14.5,-9L14,-9.5L14.2,-10L14.6,-9.9L14.9,-10L15.5,-10L14.9,-10.9L15,-11.6L14.9,-12.2L14.5,-12.9L14.6,-13.3L14,-13.4L14,-14L13.5,-14.4L14,-15.7L15.2,-16.6L15.3,-17.9L15.7,-20L15.9,-20.4L15.5,-20.7L15.5,-21L15.1,-21.3L14.9,-22.9L15.9,-23.4L19.8,-21.5L23.8,-19.6M16.3,28.6L16.8,28.1L17.2,28.4L17.4,28.8L17.8,28.9L18.5,29L19,29L19.9,28.5L19.9,24.8L20.2,24.9L20.8,25.9L20.7,26.5L20.9,26.8L21.6,26.7L22.1,26.3L22.6,26L22.8,25.5L23.3,25.3L23.7,25.4L24.2,25.7L25,25.7L25.7,25.5L25.8,25.2L25.9,24.7L26.5,24.6L26.8,24.2L27.1,23.6L28,22.8L29.4,22.1L29.8,22.1L30.3,22.3L30.7,22.2L31.2,22.3L31.7,23.7L31.9,24.4L31.8,25.5L31.8,25.8L31.3,25.7L31,25.7L31,26L30.7,26.4L30.7,26.7L31.3,27.3L31.9,27.2L32.1,26.7L32.8,26.7M29,29L28.5,28.6L28.1,28.9L27.5,29.2L27,29.9L27.8,30.6L28.1,30.5L28.3,30.2L28.8,30.1L29,29.7L29.3,29.3L29,29M29.4,22.1L28.8,21.6L28,21.5L27.7,20.9L27.7,20.5L27.3,20.4L26.2,19.3L25.9,18.7L25.6,18.5L25.3,17.7L26.4,17.8L26.7,18L27,17.9L27.6,17.3L28.5,16.5L28.8,16.4L28.9,16L29.5,15.6L30.3,15.5L30.3,15.9L31.2,15.9L31.6,16.1L31.9,16.3L32.3,16.4L32.8,16.7L32.8,18L32.7,18.7L32.6,19.4L32.8,19.7L32.7,20.3L32.5,20.4L32.2,21.1L31.2,22.3M19.9,24.8L19.9,21.8L20.9,21.8L20.9,18.3L21.7,18.2L23.2,17.9L23.6,18.3L24.2,17.9L24.5,17.9L25.1,17.7L25.3,17.7M11.7,17.3L12.2,17.1L12.8,16.9L13.5,17L14.1,17.4L14.2,17.4L18.3,17.3L19,17.8L21.4,17.9L23.2,17.5L24,17.3L24.7,17.4L25.1,17.6L25.1,17.7M-16.5,-16.1L-16.1,-16.5L-15.6,-16.4L-15.1,-16.6L-14.6,-16.6L-14.1,-16.3L-13.4,-16L-12.8,-15.3L-12.2,-14.6L-12.1,-14L-11.9,-13.4L-11.6,-13.1L-11.5,-12.8L-11.5,-12.4L-11.7,-12.4L-12.2,-12.5L-12.3,-12.4L-12.5,-12.3L-13.2,-12.6L-13.7,-12.6L-15.5,-12.6L-15.8,-12.5L-16.1,-12.5L-16.7,-12.4M-16.8,-13.2L-15.9,-13.1L-15.7,-13.3L-15.5,-13.3L-15.1,-13.5L-14.7,-13.3L-14.3,-13.3L-13.8,-13.5L-14,-13.8L-14.4,-13.6L-14.7,-13.6L-15.1,-13.9L-15.4,-13.9L-15.6,-13.6L-16.7,-13.6M-12.2,-14.6L-11.8,-14.8L-11.7,-15.4L-11.3,-15.4L-10.7,-15.1L-10.1,-15.3L-9.7,-15.3L-9.5,-15.5L-5.5,-15.5L-5.3,-16.2L-5.5,-16.3L-6,-20.6L-6.5,-25L-4.9,-25L-1.5,-22.8L1.8,-20.6L2.1,-20.1L2.7,-19.9L3.1,-19.7L3.2,-19.1L4.3,-19.2L4.3,-16.9L3.7,-16.2L3.6,-15.6L2.7,-15.4L1.4,-15.3L1,-15L0.4,-14.9L-0.3,-14.9L-0.5,-15.1L-1.1,-15L-2,-14.6L-2.2,-14.2L-3,-13.8L-3.1,-13.5L-3.5,-13.3L-4,-13.5L-4.3,-13.2L-4.4,-12.5L-5.2,-11.7L-5.2,-11.4L-5.5,-11L-5.4,-10.4L-5.8,-10.2L-6,-10.1L-6.2,-10.5L-6.5,-10.4L-6.7,-10.4L-6.8,-10.1L-7.6,-10.1L-7.9,-10.3L-8,-10.2L-8.3,-10.5L-8.3,-10.8L-8.4,-10.9L-8.6,-10.8L-8.6,-11.1L-8.4,-11.4L-8.8,-11.8L-8.9,-12.1L-9.1,-12.3L-9.3,-12.3L-9.6,-12.2L-9.9,-12.1L-10.2,-11.8L-10.6,-11.9L-10.9,-12.2L-11,-12.2L-11.3,-12.1L-11.5,-12.1L-11.5,-12.4M-8.7,-27.4L-4.9,-25M1.9,-6.1L1.6,-6.8L1.7,-9.1L1.5,-9.3L1.4,-9.8L1.1,-10.2L0.8,-10.5L0.9,-11L1.2,-11.1L1.4,-11.5L1.9,-11.6L2.2,-11.9L2.5,-12.2L2.8,-12.2L3.6,-11.7L3.6,-11.3L3.8,-10.7L3.6,-10.3L3.7,-10.1L3.2,-9.4L2.9,-9.1L2.7,-8.5L2.7,-7.9L2.7,-6.3M14.5,-12.9L14.2,-12.8L14.2,-12.5L14,-12.5L13.3,-13.6L13.1,-13.6L12.3,-13L11.5,-13.3L11,-13.4L10.7,-13.2L10.1,-13.3L9.5,-12.9L9,-12.8L7.8,-13.3L7.3,-13.1L6.8,-13.1L6.4,-13.5L5.4,-13.9L4.4,-13.7L4.1,-13.5L4,-13L3.7,-12.6L3.6,-11.7M2.2,-11.9L2.2,-12.6L1,-12.9L1,-13.3L0.4,-14L0.3,-14.4L0.4,-14.9M4.3,-19.2L5.7,-19.6L8.6,-21.6L12,-23.5L13.6,-23L14.1,-22.5L14.9,-22.9M14.2,-12.5L14.6,-12.1L14.5,-11.9L14.4,-11.6L13.6,-10.8L13.3,-10.2L13.2,-9.6L13,-9.4L12.8,-8.7L12.2,-8.3L12.1,-7.8L11.8,-7.4L11.7,-7L11.1,-6.6L10.5,-7.1L10.1,-7L9.5,-6.5L9.2,-6.4L8.8,-5.5L8.5,-4.8M15.3,-7.4L14.8,-6.4L14.5,-6.2L14.5,-5.5L14.6,-5L14.5,-4.7L15,-4.2L15,-3.9L15.4,-3.3L15.9,-3L15.9,-2.6L16,-2.3L15.9,-1.7L15.1,-2L14.3,-2.2L13.1,-2.3L13,-2.3L12.4,-2.2L11.8,-2.3L11.3,-2.3L9.6,-2.3M1.1,-5.9L0.8,-6.3L0.6,-6.9L0.5,-7.4L0.7,-8.3L0.5,-8.7L0.4,-9.5L0.4,-10.2L0,-10.7L0,-11L0.9,-11M-2.9,-5L-2.8,-5.4L-3.2,-6.3L-3,-7.4L-2.6,-8.2L-2.8,-9.6L-3,-10.4L-2.9,-11L-1.2,-11L-0.8,-10.9L-0.4,-11.1L0,-11M-5.4,-10.4L-5,-10.2L-4.8,-9.8L-4.3,-9.6L-4,-9.9L-3.5,-9.9L-2.8,-9.6M-7.7,-4.4L-7.6,-5.2L-7.5,-5.3L-7.6,-5.7L-8,-6.1L-8.3,-6.2L-8.6,-6.5L-8.4,-6.9L-8.5,-7.4L-8.4,-7.7L-8.3,-7.7L-8.2,-8.1L-8.3,-8.3L-8.2,-8.5L-7.8,-8.6L-8.1,-9.4L-8.3,-9.8L-8.2,-10.1L-8,-10.2M-8.4,-7.7L-8.7,-7.7L-8.9,-7.3L-9.2,-7.3L-9.4,-7.5L-9.3,-7.9L-9.8,-8.5L-10,-8.4L-10.2,-8.4L-10.5,-8.3L-10.5,-8.7L-10.7,-9L-10.6,-9.3L-10.8,-9.7L-11.1,-10L-11.9,-10L-12.2,-9.9L-12.4,-9.8L-12.6,-9.6L-12.7,-9.3L-13.2,-8.9M-15.1,-11L-14.7,-11.5L-14.4,-11.5L-14.1,-11.7L-13.9,-11.7L-13.7,-11.8L-13.8,-12.1L-13.7,-12.2L-13.7,-12.6M-11.4,-6.8L-11.2,-7.1L-11.1,-7.4L-10.7,-7.9L-10.2,-8.4M18.5,-3.5L17.8,-3.6L17.1,-3.7L16.5,-3.2L16,-2.3M24.6,-8.2L25.1,-7.8L25.1,-7.5L25.8,-7L26.2,-6.5L26.5,-5.9L27.2,-5.6L27.4,-5.2M13,4.8L12.6,4.4L12.3,4.6L11.9,5M11.1,4L11.9,3.4L11.5,2.8L11.8,2.5L12.5,2.4L12.6,1.9L13.1,2.4L14,2.5L14.3,2L14.4,1.3L14.3,0.6L13.8,0L14.3,-1.2L14,-1.4L13.3,-1.3L13,-1.8L13.1,-2.3M9.5,-1L9.8,-1.1L11.3,-1.1L11.3,-2.3M32.8,9.2L33.2,9.7L33.5,10.5L33.3,10.8L33.1,11.6L33.3,12.4L33,12.8L32.7,13.7L33.2,14L30.2,14.8L30.3,15.5M23.2,17.5L22.6,16.9L21.9,16.1L21.9,12.9L24,12.9L23.9,12.6L24.1,12.2L23.9,11.7L24,11.2L23.9,10.9M34.6,11.5L34.3,12.3L34.6,13.6L34.9,13.6L35.3,13.9L35.7,14.6L35.8,15.9L35.3,16.1L35,16.8L34.4,16.2L34.3,15.5L34.5,15L34.5,14.6L34.1,14.4L33.8,14.5L33.2,14M32.1,26.7L32,26.3L31.8,25.8M29,2.8L29.6,2.9L29.9,2.3L30.5,2.4M35.1,-33.1L35.5,-33.1L35.6,-33.3L35.8,-33.3L35.8,-32.9L35.7,-32.7L35.7,-32.7L35.5,-32.4L35.2,-32.5L35,-31.9L35.2,-31.8L35,-31.6L34.9,-31.4L35.4,-31.5L35.4,-31.1L34.9,-29.5L34.8,-29.8L34.3,-31.2M36,-34.6L36.4,-34.6L36.6,-34.2L36.1,-33.8L35.8,-33.3M35.5,-32.4L35.5,-31.8L35.4,-31.5M11.5,-33.1L11.4,-32.4L10.9,-32.1L10.6,-31.8L9.9,-31.4L10.1,-31L10,-30.5L9.5,-30.3L9.1,-32.1L8.4,-32.5L8.4,-32.7L7.6,-33.3L7.5,-34.1L8.1,-34.7L8.4,-35.5L8.2,-36.4L8.4,-36.9M-8.7,-27.7L-8.7,-28.8L-7.1,-29.6L-6.1,-29.7L-5.2,-30L-4.9,-30.5L-3.7,-30.9L-3.6,-31.6L-3.1,-31.7L-2.6,-32.1L-1.3,-32.3L-1.1,-32.7L-1.4,-32.9L-1.7,-33.9L-1.8,-34.5L-2.2,-35.2M9.5,-30.3L9.8,-29.4L9.9,-29L9.7,-28.1L9.8,-27.7L9.6,-27.1L9.7,-26.5L9.3,-26.1L9.9,-25.4L9.9,-24.9L10.3,-24.4L10.8,-24.6L11.6,-24.1L12,-23.5M35.7,-32.7L36.8,-32.3L38.8,-33.4L39.2,-32.2L39,-32L37,-31.5L38,-30.5L37.7,-30.3L37.5,-30L36.7,-29.9L36.5,-29.5L36.1,-29.2L35,-29.4M55.4,-23.3L55.2,-23.1L55.2,-22.7L55,-22.5L52,-23L51.6,-24L51.6,-24.2M51.4,-24.6L51.1,-24.6L50.8,-24.8M48.4,-28.6L47.7,-28.5L47.5,-29L46.6,-29.1L47.3,-30.1L48,-30M38.8,-33.4L41,-34.4L41.4,-35.6L41.3,-36.4L41.8,-36.6L42.3,-37.2L42.8,-37.4L43.9,-37.3L44.3,-37L44.8,-37.2L45.4,-36L46.1,-35.7L46.2,-35.1L45.7,-34.7L45.4,-34L46.1,-33L47.3,-32.5L47.8,-31.7L47.7,-31L48,-31L48,-30.5L48.6,-29.9M46.6,-29.1L44.7,-29.2L41.9,-31.2L40.4,-31.9L39.2,-32.2M53.1,-16.7L52.8,-17.3L52,-19L55,-20L55.4,-21.2M55.4,-22.4L55.2,-22.7M55.4,-37.9L54.8,-37.4L53.9,-37.2M44.8,-37.2L44.2,-38L44.4,-38.3L44.4,-38.4M48.5,-38.4L48.6,-38.3L48.9,-38.3M36.1,-35.8L36.4,-36L36.7,-36.3L36.7,-36.8L37.1,-36.6L38.2,-36.9L38.7,-36.7L39.5,-36.7L40.7,-37.1L41.2,-37.1L42.3,-37.2M-7.4,-38.4L-7.4,-38.4L-7,-38.1L-7.2,-37.8L-7.5,-37.4L-7.5,-37.1M43.1,-12.7L42.8,-12.5L42.4,-12.5L42,-12.9L41.6,-13.5L41.2,-13.8L40.9,-14.1L40,-14.5L39.3,-14.5L39.1,-14.7L38.5,-14.5L37.9,-15L37.6,-14.2L36.4,-14.4M42.8,-16.3L43.2,-16.7L43.1,-17.1L43.4,-17.6L43.8,-17.3L44.1,-17.4L45.2,-17.4L45.4,-17.3L46.4,-17.2L46.7,-17.3L47,-16.9L47.5,-17.1L48.2,-18.2L49.1,-18.6L52,-19M34,-35.1L33.9,-35.1L33.7,-35L33.5,-35L33.5,-35L33.5,-35.1L33.4,-35.2L33.2,-35.2L32.9,-35.1L32.7,-35.1M25,-22L25,-25.7L25,-29.2L24.7,-30L25,-30.7L24.8,-31.1L25.2,-31.6M35.3,-5.5L34.7,-6.6L34.2,-6.8L34.1,-7.2L33.6,-7.7L33,-7.8L33.3,-8.4L33.8,-8.4L34,-8.7M42.4,-12.5L42,-12.1L41.7,-11.6L41.7,-11.4L41.8,-11.1L42.3,-11L42.6,-11.1L42.8,-10.9L42.6,-10.6L42.9,-10L43.3,-9.5L43.7,-9.2L46.9,-8L47.8,-8M43.1,-11.5L42.8,-10.9M30.4,1.1L29.8,1.4L29.6,1.3M30.8,-3.5L31.2,-3.8L31.9,-3.6L32.7,-3.8L33.4,-3.8L34,-4.3" fill="none" stroke="#B3AA99" stroke-width="0.9" vector-effect="non-scaling-stroke" stroke-linejoin="round"/><path d="M49.5,12.5L49.8,12.9L50.1,13.6L50.2,14.8L50.5,15.2L50.4,15.7L50.2,16L49.9,15.4L49.7,15.7L49.9,16.5L49.8,16.9L49.5,17.1L49.4,18L49,19.1L48.5,20.5L47.9,22.4L47.5,23.8L47.1,24.9L46.3,25.2L45.4,25.6L44.8,25.3L44,25L43.8,24.5L43.7,23.6L43.3,22.8L43.3,22.1L43.4,21.3L43.9,21.2L43.9,20.8L44.4,20.1L44.5,19.4L44.2,19L44,18.3L44,17.4L44.3,16.9L44.4,16.2L44.9,16.2L45.5,16L45.9,15.8L46.3,15.8L46.9,15.2L47.7,14.6L48,14.1L47.9,13.7L48.3,13.8L48.8,13.1L48.9,12.5L49.2,12L49.5,12.5M26.3,-35.3L26.2,-35L24.7,-34.9L24.7,-35.1L23.5,-35.3L23.7,-35.7L24.2,-35.4L25,-35.4L25.8,-35.4L25.7,-35.2L26.3,-35.3M14.8,-38.1L15.5,-38.2L15.2,-37.4L15.3,-37.1L15.1,-36.6L14.3,-37L13.8,-37.1L12.4,-37.6L12.6,-38.1L13.7,-38L14.8,-38.1M48.9,-38.3L49.2,-37.6L50.1,-37.4L50.8,-36.9L52.3,-36.7L53.8,-37L53.9,-37.2L53.7,-37.9L53.8,-38.4M48.9,-38.4L48.9,-38.3M32.7,-35.1L32.8,-35.1L32.9,-35.4L33.7,-35.4L34.6,-35.7L33.9,-35.2L34,-35.1L34,-35L33,-34.6L32.5,-34.7L32.3,-35.1L32.7,-35.1M16.4,-38.4L16.1,-38L15.7,-37.9L15.7,-38.2L15.8,-38.4M-0.3,-38.4L-0.5,-38.3L-0.7,-37.6L-1.4,-37.4L-2.1,-36.7L-3.4,-36.7L-4.4,-36.7L-5,-36.3L-5.4,-35.9L-5.9,-36L-6.2,-36.4L-6.5,-36.9L-7.5,-37.1L-7.9,-36.8L-8.4,-37L-8.9,-36.9L-8.7,-37.7L-8.8,-38.3L-9.3,-38.4L-9.3,-38.4M55.4,-26.8L54.7,-26.5L53.5,-26.8L52.5,-27.6L51.5,-27.9L50.9,-28.8L50.1,-30.1L49.6,-30L48.9,-30.3L48.6,-29.9L48,-30L48.2,-29.5L48.1,-29.3L48.4,-28.6L48.8,-27.7L49.3,-27.5L49.5,-27.1L50.2,-26.7L50.2,-26.3L50.1,-25.9L50.2,-25.6L50.5,-25.3L50.7,-25L50.8,-24.8L50.7,-25.5L51,-26L51.3,-26.1L51.6,-25.8L51.6,-25.2L51.4,-24.6L51.6,-24.2L51.8,-24.3L51.8,-24L52.6,-24.2L53.4,-24.2L54,-24.1L54.7,-24.8L55.4,-25.4M55.4,-17.7L55.3,-17.6L55.3,-17.2L54.8,-16.9L54.2,-17L53.6,-16.7L53.1,-16.7L52.4,-16.4L52.2,-15.9L52.2,-15.6L51.2,-15.2L49.6,-14.7L48.7,-14L48.2,-13.9L47.9,-14L47.4,-13.6L46.7,-13.4L45.9,-13.3L45.6,-13.3L45.4,-13L45.1,-13L45,-12.7L44.5,-12.7L44.2,-12.6L43.5,-12.6L43.2,-13.2L43.3,-13.8L43.1,-14.1L42.9,-14.8L42.6,-15.2L42.8,-15.3L42.7,-15.7L42.8,-15.9L42.8,-16.3L42.6,-16.8L42.3,-17.1L42.3,-17.5L41.8,-17.8L41.2,-18.7L40.9,-19.5L40.2,-20.2L39.8,-20.3L39.1,-21.3L39,-22L39.1,-22.6L38.5,-23.7L38,-24.1L37.5,-24.3L37.2,-24.9L37.2,-25.1L36.9,-25.6L36.6,-25.8L36.3,-26.6L35.6,-27.4L35.1,-28.1L34.6,-28.1L34.8,-28.6L34.8,-29L35,-29.4L34.9,-29.5L34.6,-29.1L34.4,-28.3L34.2,-27.8L33.9,-27.6L33.6,-28L33.1,-28.4L32.4,-29.9L32.3,-29.8L32.7,-28.7L33.3,-27.7L34.1,-26.1L34.5,-25.6L34.8,-25L35.7,-23.9L35.5,-23.8L35.5,-23.1L36.7,-22.2L36.9,-22L37.2,-21L37,-20.8L37.1,-19.8L37.5,-18.6L37.9,-18.4L38.4,-18L39,-16.8L39.3,-15.9L39.8,-15.4L41.2,-14.5L41.7,-13.9L42.3,-13.3L42.6,-13L43.1,-12.7L43.3,-12.4L43.3,-12L42.7,-11.7L43.1,-11.5L43.5,-11.3L43.7,-10.9L44.1,-10.4L44.6,-10.4L45.6,-10.7L46.6,-10.8L47.5,-11.1L48,-11.2L48.4,-11.4L48.9,-11.4L49.3,-11.4L49.7,-11.6L50.3,-11.7L50.7,-12L51.1,-12L51.1,-11.7L51,-11.2L51,-10.6L50.8,-10.3L50.6,-9.2L50.1,-8.1L49.5,-6.8L48.6,-5.3L47.7,-4.2L46.6,-2.9L45.6,-2L44.1,-1.1L43.1,-0.3L42,0.9L41.8,1.4L41.6,1.7L40.9,2.1L40.6,2.5L40.3,2.6L40.1,3.3L39.8,3.7L39.6,4.3L39.2,4.7L38.7,5.9L38.8,6.5L39.4,6.8L39.5,7.1L39.2,7.7L39.3,8L39.2,8.5L39.5,9.1L40,10.1L40.3,10.3L40.5,10.8L40.4,11.8L40.6,12.6L40.6,14.2L40.8,14.7L40.5,15.4L40.1,16.1L39.5,16.7L38.5,17.1L37.4,17.6L36.3,18.7L35.9,18.8L35.2,19.6L34.8,19.8L34.7,20.5L35.2,21.3L35.4,21.8L35.4,22.1L35.6,22.1L35.5,23.1L35.4,23.5L35.6,23.7L35.5,24.1L35,24.5L34.2,24.8L33,25.4L32.6,25.7L32.7,26.1L32.9,26.2L32.8,26.7L32.6,27.5L32.5,28.3L32.2,28.8L31.5,29.3L31.3,29.4L30.9,29.9L30.6,30.4L30.1,31.1L28.9,32.2L28.2,32.8L27.5,33.2L26.4,33.6L25.9,33.7L25.8,33.9L25.2,33.8L24.7,34L23.6,33.8L23,33.9L22.6,33.9L21.5,34.3L20.7,34.4L20.1,34.8L19.6,34.8L19.2,34.5L18.9,34.4L18.4,34L18.4,34.1L18.2,33.9L18.3,33.3L17.9,32.6L18.2,32.4L18.2,31.7L17.6,30.7L17.1,29.9L17.1,29.9L16.3,28.6L15.6,27.8L15.2,27.1L15,26.1L14.7,25.4L14.4,23.9L14.4,22.7L14.3,22.1L13.9,21.7L13.4,20.9L12.8,19.7L12.6,19L11.8,18.1L11.7,17.3L11.6,16.7L11.8,15.8L12.1,14.9L12.2,14.4L12.5,13.5L12.7,13.1L13.3,12.5L13.6,12L13.7,11.3L13.7,10.7L13.4,10.4L13.1,9.8L12.9,9.2L12.9,9L13.2,8.6L12.9,7.6L12.7,6.9L12.2,6.3L12.3,6.1L12.2,5.8L11.9,5L11.1,4L10.1,3L9.4,2.1L8.8,1.1L8.8,0.8L9,0.5L9.3,-0.3L9.5,-1L9.3,-1.2L9.6,-2.3L9.8,-3.1L9.4,-3.7L8.9,-3.9L8.7,-4.4L8.5,-4.5L8.5,-4.8L7.5,-4.4L7.1,-4.5L6.7,-4.2L5.9,-4.3L5.4,-4.9L5,-5.6L4.3,-6.3L3.6,-6.3L2.7,-6.3L1.9,-6.1L1.1,-5.9L-0.5,-5.3L-1.1,-5L-2,-4.7L-2.9,-5L-3.3,-5L-4,-5.2L-4.6,-5.2L-5.8,-5L-6.5,-4.7L-7.5,-4.3L-7.7,-4.4L-8,-4.4L-9,-4.8L-9.9,-5.6L-10.8,-6.1L-11.4,-6.8L-11.7,-6.9L-12.4,-7.3L-12.9,-7.8L-13.1,-8.2L-13.2,-8.9L-13.7,-9.5L-14.1,-9.9L-14.3,-10L-14.6,-10.2L-14.7,-10.7L-14.8,-10.9L-15.1,-11L-15.7,-11.5L-16.1,-11.5L-16.3,-11.8L-16.3,-12L-16.6,-12.2L-16.7,-12.4L-16.8,-13.2L-16.7,-13.6L-17.1,-14.4L-17.6,-14.7L-17.2,-14.9L-16.7,-15.6L-16.5,-16.1L-16.6,-16.7L-16.3,-17.2L-16.1,-18.1L-16.3,-19.1L-16.4,-19.6L-16.3,-20.1L-16.5,-20.6L-17.1,-21L-17,-21.4L-17,-21.9L-16.6,-22.2L-16.3,-22.7L-16.3,-23L-16,-23.7L-15.4,-24.4L-15.1,-24.5L-14.8,-25.1L-14.8,-25.6L-14.4,-26.3L-13.8,-26.6L-13.1,-27.6L-13.1,-27.7L-12.6,-28L-11.7,-28.1L-10.9,-28.8L-10.4,-29.1L-9.6,-29.9L-9.8,-31.2L-9.4,-32L-9.3,-32.6L-8.7,-33.2L-7.7,-33.7L-6.9,-34.1L-6.2,-35.1L-5.9,-35.8L-5.2,-35.8L-4.6,-35.3L-3.6,-35.4L-2.6,-35.2L-2.2,-35.2L-1.2,-35.7L-0.1,-35.9L0.5,-36.3L1.5,-36.6L3.2,-36.8L4.8,-36.9L5.3,-36.7L6.3,-37.1L7.3,-37.1L7.7,-36.9L8.4,-36.9L9.5,-37.4L10.2,-37.2L10.2,-36.7L11,-37.1L11.1,-36.9L10.6,-36.4L10.6,-35.9L10.9,-35.7L10.8,-34.8L10.2,-34.3L10.3,-33.8L10.9,-33.8L11.1,-33.3L11.5,-33.1L12.7,-32.8L13.1,-32.9L13.9,-32.7L15.2,-32.3L15.7,-31.4L16.6,-31.2L18,-30.8L19.1,-30.3L19.6,-30.5L20.1,-31L19.8,-31.8L20.1,-32.2L20.9,-32.7L21.5,-32.8L22.9,-32.6L23.2,-32.2L23.6,-32.2L23.9,-32L24.9,-31.9L25.2,-31.6L26.5,-31.6L27.5,-31.3L28.4,-31L28.9,-30.9L29.7,-31.2L30.1,-31.5L31,-31.6L31.7,-31.4L32,-30.9L32.2,-31.3L33,-31L33.8,-31L34.3,-31.2L34.6,-31.5L34.5,-31.6L34.8,-32.1L35,-32.8L35.1,-33.1L35.1,-33.1L35.5,-33.9L36,-34.6L36,-34.6L35.9,-35.4L36.1,-35.8L35.8,-36.3L36.2,-36.7L35.6,-36.6L34.7,-36.8L34,-36.2L32.5,-36.1L31.7,-36.6L30.6,-36.7L30.4,-36.3L29.7,-36.1L28.7,-36.7L27.6,-36.7L27,-37.7L26.3,-38.2L26.4,-38.4M23.7,-38.4L24,-38.2L24,-37.7L23.1,-37.9L23.4,-37.4L22.8,-37.3L23.2,-36.4L22.5,-36.4L21.7,-36.8L21.3,-37.6L21.1,-38.3L21,-38.4" fill="none" stroke="#8FAABB" stroke-width="0.9" vector-effect="non-scaling-stroke" stroke-linejoin="round"/></g></svg>